<?xml version="1.0" standalone="no"?>
<!DOCTYPE svg PUBLIC "-//W3C//DTD SVG 20010904//EN"
 "http://www.w3.org/TR/2001/REC-SVG-20010904/DTD/svg10.dtd">
<svg version="1.0" xmlns="http://www.w3.org/2000/svg"
 width="520.000000pt" height="520.000000pt" viewBox="0 0 520.000000 520.000000"
 preserveAspectRatio="xMidYMid meet">
<metadata>
Created by potrace 1.16, written by Peter Selinger 2001-2019
</metadata>
<g transform="translate(0.000000,512.000000) scale(0.100000,-0.100000)"
fill="#FF7643"stroke="none">
<path d="M1247 5105 c-155 -59 -279 -255 -321 -509 l-12 -71 -290 -5 c-319 -6
-326 -7 -430 -76 -80 -53 -141 -134 -175 -232 -18 -54 -19 -110 -19 -1952 0
-1842 1 -1898 19 -1952 47 -138 151 -242 288 -289 55 -19 103 -19 2253 -19
2150 0 2198 0 2253 19 137 47 241 151 288 289 18 54 19 110 19 1952 0 1853 0
1898 -19 1953 -47 137 -151 241 -289 288 -49 17 -85 19 -329 19 -210 0 -274 3
-277 13 -2 6 -11 53 -20 102 -41 213 -152 392 -283 457 -40 19 -64 23 -143 23
-79 0 -103 -4 -143 -23 -131 -65 -242 -244 -283 -457 -9 -49 -18 -96 -20 -102
-3 -10 -42 -13 -154 -13 -112 0 -151 3 -154 13 -2 6 -11 53 -20 102 -41 213
-152 392 -283 457 -40 19 -64 23 -143 23 -79 0 -103 -4 -143 -23 -131 -65
-242 -244 -283 -457 -9 -49 -18 -96 -20 -102 -3 -10 -42 -13 -154 -13 -112 0
-151 3 -154 13 -2 6 -11 53 -20 102 -41 213 -152 392 -283 457 -59 29 -196 36
-256 13z m158 -341 c30 -40 66 -132 80 -206 l7 -38 -131 0 c-89 0 -131 4 -131
11 0 21 31 129 49 171 22 52 69 110 85 105 6 -2 25 -21 41 -43z m1200 0 c30
-40 66 -132 80 -206 l7 -38 -131 0 c-89 0 -131 4 -131 11 0 21 31 129 49 171
22 52 69 110 85 105 6 -2 25 -21 41 -43z m1200 0 c30 -40 66 -132 80 -206 l7
-38 -131 0 c-89 0 -131 4 -131 11 0 21 31 129 49 171 22 52 69 110 85 105 6
-2 25 -21 41 -43z m-2315 -555 c0 -22 -31 -129 -49 -172 -27 -64 -77 -117
-110 -117 -65 0 -121 -68 -121 -149 0 -64 24 -109 73 -136 46 -24 155 -18 220
14 131 64 242 243 283 456 9 50 18 96 20 103 5 16 884 18 884 1 0 -22 -31
-129 -49 -172 -27 -64 -77 -117 -110 -117 -65 0 -121 -68 -121 -149 0 -64 24
-109 73 -136 46 -24 155 -18 220 14 131 64 242 243 283 456 9 50 18 96 20 103
5 16 884 18 884 1 0 -22 -31 -129 -49 -172 -27 -64 -77 -117 -110 -117 -65 0
-121 -68 -121 -149 0 -64 24 -109 73 -136 46 -24 155 -18 220 14 131 64 242
243 283 456 9 50 18 96 20 103 3 11 52 13 251 10 234 -3 250 -4 283 -25 19
-12 44 -37 55 -55 19 -31 20 -54 23 -430 l3 -398 -2261 0 -2261 0 3 398 c3
389 3 398 25 432 24 39 53 60 98 71 52 12 1065 11 1065 -2z m3328 -2496 c-3
-1278 -3 -1299 -23 -1331 -11 -18 -36 -43 -55 -55 l-35 -22 -2145 0 -2145 0
-35 22 c-19 12 -44 37 -55 55 -20 32 -20 53 -23 1331 l-2 1297 2260 0 2260 0
-2 -1297z"/>
<path d="M676 2691 c-15 -10 -37 -32 -47 -47 -18 -28 -19 -65 -19 -989 0 -924
1 -961 19 -989 10 -15 32 -37 47 -47 28 -18 84 -19 1884 -19 1800 0 1856 1
1884 19 15 10 37 32 47 47 18 28 19 65 19 989 0 924 -1 961 -19 989 -10 15
-32 37 -47 47 -28 18 -84 19 -1884 19 -1800 0 -1856 -1 -1884 -19z m834 -581
l0 -300 -300 0 -300 0 0 300 0 300 300 0 300 0 0 -300z m900 0 l0 -300 -300 0
-300 0 0 300 0 300 300 0 300 0 0 -300z m900 0 l0 -300 -300 0 -300 0 0 300 0
300 300 0 300 0 0 -300z m900 0 l0 -300 -300 0 -300 0 0 300 0 300 300 0 300
0 0 -300z m-2700 -905 l0 -305 -300 0 -300 0 0 305 0 305 300 0 300 0 0 -305z
m900 0 l0 -305 -300 0 -300 0 0 305 0 305 300 0 300 0 0 -305z m900 0 l0 -305
-300 0 -300 0 0 305 0 305 300 0 300 0 0 -305z m900 0 l0 -305 -300 0 -300 0
0 305 0 305 300 0 300 0 0 -305z"/>
</g>
</svg>
