<?xml version="1.0" standalone="no"?>
<!DOCTYPE svg PUBLIC "-//W3C//DTD SVG 20010904//EN"
 "http://www.w3.org/TR/2001/REC-SVG-20010904/DTD/svg10.dtd">
<svg version="1.0" xmlns="http://www.w3.org/2000/svg"
 width="520.000000pt" height="520.000000pt" viewBox="0 0 520.000000 520.000000"
 preserveAspectRatio="xMidYMid meet">

<g transform="translate(0.000000,512.000000) scale(0.100000,-0.100000)"
fill="#FF7643" stroke="none">
<path d="M2444 4976 l-34 -34 0 -155 0 -156 -156 -3 -156 -3 -29 -33 -29 -32
0 -795 0 -795 -390 0 -390 0 0 158 c0 129 -3 163 -18 192 -30 60 -29 60 -445
58 l-379 -3 -24 -28 -24 -28 0 -1505 0 -1504 -145 0 c-160 0 -192 -8 -213 -55
-20 -44 -14 -75 22 -111 l34 -34 2492 0 2492 0 34 34 c36 36 42 67 22 111 -22
48 -52 55 -233 55 l-165 0 0 826 0 826 -29 29 c-31 31 -83 39 -122 19 -50 -27
-49 -9 -49 -885 l0 -815 -360 0 -360 0 0 436 0 436 -29 29 -29 29 -362 0
c-229 0 -368 -4 -381 -10 -48 -26 -49 -41 -49 -495 l0 -425 -350 0 -350 0 0
2060 0 2060 1135 0 1135 0 0 -821 c0 -584 3 -827 11 -842 32 -63 111 -77 160
-28 l29 29 0 896 0 896 -29 32 -29 33 -140 3 -140 3 -4 153 c-3 166 -13 197
-64 216 -15 6 -378 10 -926 10 l-900 0 -34 -34z m1724 -258 l3 -88 -781 0
-780 0 0 90 0 90 778 -2 777 -3 3 -87z m-3108 -1643 l0 -105 -245 0 -245 0 0
105 0 105 245 0 245 0 0 -105z m980 -1535 l0 -1230 -210 0 -209 0 -3 250 -3
250 -28 27 -27 28 -247 3 c-251 3 -286 -1 -315 -36 -10 -11 -14 -83 -18 -266
l-5 -251 -202 -3 -203 -2 0 1230 0 1230 735 0 735 0 0 -1230z m1550 -865 l0
-365 -225 0 -225 0 0 365 0 365 225 0 225 0 0 -365z m-2170 -185 l0 -180 -120
0 -120 0 0 180 0 180 120 0 120 0 0 -180z"/>
<path d="M863 2532 c-12 -2 -33 -15 -47 -29 l-26 -26 0 -666 c0 -742 -4 -700
69 -722 31 -9 43 -8 70 6 62 32 61 20 61 715 0 721 3 698 -78 719 -15 4 -37 5
-49 3z"/>
<path d="M1273 2532 c-12 -2 -33 -15 -47 -29 l-26 -26 0 -666 c0 -742 -4 -700
69 -722 31 -9 43 -8 70 6 62 32 61 21 61 707 0 618 -3 682 -34 707 -19 16 -66
28 -93 23z"/>
<path d="M1683 2532 c-12 -2 -33 -15 -47 -29 l-26 -26 0 -666 c0 -743 -4 -700
70 -722 33 -10 43 -9 72 8 20 11 38 32 45 53 15 45 18 1256 3 1311 -6 20 -17
42 -24 48 -19 16 -66 28 -93 23z"/>
<path d="M2614 4036 l-35 -35 3 -251 3 -252 28 -24 c28 -24 28 -24 281 -24
l252 0 27 28 27 28 0 251 c0 252 0 252 -24 280 l-24 28 -252 3 -251 3 -35 -35z
m386 -276 l0 -110 -110 0 -110 0 0 110 0 110 110 0 110 0 0 -110z"/>
<path d="M3568 4054 c-15 -8 -32 -23 -38 -34 -6 -11 -10 -116 -10 -265 l0
-247 29 -29 29 -29 252 0 252 0 29 29 29 29 0 241 c0 259 -4 282 -51 307 -41
21 -482 20 -521 -2z m372 -294 l0 -110 -110 0 -110 0 0 110 0 110 110 0 110 0
0 -110z"/>
<path d="M2613 3166 l-28 -24 -3 -252 -3 -251 35 -35 34 -34 236 0 c251 0 282
5 306 49 6 12 10 117 10 269 l0 249 -26 27 -27 26 -253 0 c-253 0 -253 0 -281
-24z m387 -286 l0 -110 -110 0 -110 0 0 110 0 110 110 0 110 0 0 -110z"/>
<path d="M3546 3159 l-26 -31 0 -246 c0 -267 2 -273 57 -301 31 -16 473 -15
508 1 51 23 55 46 55 308 l0 242 -29 29 -29 29 -255 0 -255 0 -26 -31z m394
-279 l0 -110 -110 0 -110 0 0 110 0 110 110 0 110 0 0 -110z"/>
<path d="M4547 2430 c-49 -39 -41 -131 12 -160 65 -34 151 14 151 85 0 79
-100 125 -163 75z"/>
<path d="M2631 2306 c-47 -26 -50 -45 -51 -294 0 -247 5 -278 49 -302 12 -6
116 -10 265 -10 l244 0 31 26 31 26 0 255 0 255 -29 29 -29 29 -244 0 c-182
-1 -249 -4 -267 -14z m369 -296 l0 -110 -110 0 -110 0 0 110 0 110 110 0 110
0 0 -110z"/>
<path d="M3574 2310 c-51 -20 -54 -36 -54 -303 l0 -249 29 -29 29 -29 252 0
252 0 29 29 29 29 0 247 c0 150 -4 254 -10 266 -24 44 -55 49 -302 48 -128 0
-243 -4 -254 -9z m366 -300 l0 -110 -110 0 -110 0 0 110 0 110 110 0 110 0 0
-110z"/>
</g>
</svg>
