<?xml version="1.0" standalone="no"?>
<!DOCTYPE svg PUBLIC "-//W3C//DTD SVG 20010904//EN"
 "http://www.w3.org/TR/2001/REC-SVG-20010904/DTD/svg10.dtd">
<svg version="1.0" xmlns="http://www.w3.org/2000/svg"
 width="512.000000pt" height="512.000000pt" viewBox="0 0 512.000000 512.000000"
 preserveAspectRatio="xMidYMid meet">

<g transform="translate(0.000000,512.000000) scale(0.100000,-0.100000)"
fill="#000000" stroke="none">
<path d="M1236 4945 c-152 -42 -296 -160 -361 -297 -49 -103 -65 -187 -65
-355 l0 -141 -156 -4 -156 -3 -35 -39 c-32 -35 -35 -42 -30 -84 4 -35 12 -53
36 -74 l31 -28 155 0 155 0 0 -375 0 -375 -140 0 c-159 0 -199 -11 -224 -59
-20 -38 -20 -74 -1 -111 27 -52 58 -60 220 -60 l145 0 0 -375 0 -375 -145 0
c-162 0 -193 -8 -220 -60 -19 -37 -19 -73 1 -111 25 -48 65 -59 224 -59 l140
0 0 -375 0 -375 -144 0 c-80 0 -156 -4 -170 -10 -32 -12 -66 -65 -66 -103 0
-16 8 -42 17 -58 29 -49 65 -59 222 -59 l141 0 0 -147 c0 -252 39 -363 169
-494 82 -83 158 -127 264 -157 57 -16 169 -17 1487 -17 1164 0 1435 2 1480 14
207 51 371 211 425 416 13 52 15 280 15 1970 0 1690 -2 1918 -15 1970 -51 192
-190 341 -378 400 l-78 25 -1447 -1 c-1178 -1 -1456 -3 -1496 -14z m2964 -229
c101 -43 179 -125 212 -221 11 -33 13 -375 13 -1935 0 -1764 -1 -1898 -17
-1938 -28 -69 -76 -131 -131 -167 -104 -68 -24 -65 -1542 -65 -1104 0 -1381 3
-1426 14 -110 25 -189 90 -238 196 -24 51 -26 67 -29 218 l-4 162 142 0 c111
0 150 4 176 16 68 33 85 120 35 176 l-29 33 -161 3 -161 3 0 375 0 374 145 0
c162 0 193 8 220 60 30 57 10 127 -45 155 -22 11 -64 15 -175 15 l-145 0 0
375 0 375 148 0 c129 0 151 2 180 20 51 32 66 93 36 151 -25 48 -65 59 -224
59 l-140 0 0 375 0 375 156 0 156 0 34 34 c37 37 45 82 22 130 -23 53 -50 61
-216 64 l-154 4 4 162 c3 159 3 162 36 228 48 99 136 166 243 187 24 5 672 8
1439 8 1351 -2 1396 -3 1440 -21z"/>
<path d="M2660 3701 c-274 -37 -479 -272 -480 -548 -1 -354 344 -625 685 -538
101 26 183 72 254 144 114 114 165 240 165 401 -1 159 -57 284 -177 397 -119
111 -288 165 -447 144z m205 -250 c63 -28 130 -94 162 -160 38 -79 39 -191 2
-271 -32 -66 -86 -123 -154 -158 -43 -23 -62 -27 -140 -27 -108 0 -163 22
-236 95 -172 172 -82 479 158 540 54 13 156 4 208 -19z"/>
<path d="M2571 2399 c-75 -14 -142 -39 -236 -87 -73 -38 -108 -64 -186 -142
-134 -132 -207 -266 -243 -442 -21 -102 -21 -226 0 -256 37 -54 13 -52 824
-52 675 0 755 2 786 16 54 26 68 62 61 165 -25 393 -298 717 -669 793 -83 17
-262 20 -337 5z m339 -239 c204 -55 385 -257 425 -472 l7 -38 -610 0 -610 0
14 63 c25 107 80 203 164 288 78 78 130 113 227 149 99 37 269 42 383 10z"/>
</g>
</svg>
