<?xml version="1.0" standalone="no"?>
<!DOCTYPE svg PUBLIC "-//W3C//DTD SVG 20010904//EN"
 "http://www.w3.org/TR/2001/REC-SVG-20010904/DTD/svg10.dtd">
<svg version="1.0" xmlns="http://www.w3.org/2000/svg"
 width="512.000000pt" height="512.000000pt" viewBox="0 0 512.000000 512.000000"
 preserveAspectRatio="xMidYMid meet">

<g transform="translate(0.000000,512.000000) scale(0.100000,-0.100000)"
fill="#FF7643" stroke="none">
<path d="M2463 5105 c-170 -46 -287 -185 -300 -358 -10 -125 33 -234 128 -322
l50 -46 -3 -132 -3 -132 -855 -5 c-933 -5 -881 -2 -937 -62 -47 -50 -67 -149
-44 -211 15 -39 72 -99 111 -115 20 -9 81 -18 141 -21 l107 -6 -360 -792
c-298 -656 -363 -793 -380 -793 -50 0 -98 -50 -98 -101 0 -34 159 -337 196
-375 19 -18 54 -44 77 -56 l42 -23 649 -3 c728 -3 706 -5 790 69 36 32 62 73
126 199 92 182 98 214 51 261 -19 18 -40 29 -58 29 -27 0 -35 15 -380 778
-193 427 -355 785 -358 795 -7 16 25 17 589 17 l596 0 0 -1399 0 -1400 -297
-3 c-278 -3 -301 -4 -343 -24 -100 -47 -140 -116 -147 -256 l-6 -98 -84 0
c-96 0 -141 -15 -191 -63 -69 -65 -77 -94 -77 -265 0 -149 1 -154 24 -173 23
-18 58 -19 1341 -19 1283 0 1318 1 1341 19 23 19 24 24 24 173 0 171 -8 200
-77 265 -50 48 -95 63 -191 63 l-84 0 -6 98 c-7 140 -47 209 -147 256 -42 20
-65 21 -342 24 l-298 3 0 1100 c0 1086 0 1099 -20 1119 -30 30 -83 27 -109 -6
-21 -27 -21 -29 -21 -1120 l0 -1094 -70 0 -70 0 -2 1454 c-3 1414 -4 1454 -22
1475 l-19 21 -881 0 c-782 0 -884 2 -904 16 -25 17 -30 65 -9 83 10 7 271 11
901 13 l888 3 24 28 c23 27 24 34 24 178 l0 149 70 0 70 0 0 -149 c0 -144 1
-151 24 -178 l24 -28 888 -3 c630 -2 891 -6 901 -13 21 -18 16 -66 -9 -83 -20
-14 -122 -16 -904 -16 l-881 0 -19 -21 c-17 -19 -19 -41 -22 -211 -3 -206 2
-237 44 -257 37 -16 52 -14 79 14 24 23 25 28 25 175 l0 150 596 0 c564 0 596
-1 589 -17 -3 -10 -165 -368 -358 -795 -345 -763 -353 -778 -380 -778 -18 0
-39 -11 -58 -29 -47 -47 -41 -79 51 -261 64 -126 90 -167 126 -199 84 -74 62
-72 790 -69 l649 3 42 23 c23 12 58 38 77 56 37 38 196 341 196 375 0 51 -48
101 -98 101 -16 0 -83 139 -380 793 l-360 792 106 6 c61 3 122 12 142 21 39
16 96 76 111 115 23 62 3 161 -44 211 -56 60 -4 57 -937 62 l-855 5 -3 132 -3
132 50 46 c131 122 166 302 92 460 -52 113 -144 188 -268 220 -70 18 -121 18
-190 0z m203 -161 c83 -39 144 -135 144 -225 0 -89 -59 -182 -142 -223 -133
-66 -292 1 -343 144 -46 132 30 277 166 319 46 14 129 7 175 -15z m-966 -2831
c0 -2 -313 -3 -696 -3 -658 0 -696 1 -691 18 2 9 152 341 332 737 180 396 334
735 342 754 l15 35 349 -770 c192 -423 349 -770 349 -771z m2766 771 c189
-417 344 -761 344 -766 0 -4 -313 -8 -696 -8 -387 0 -694 4 -692 9 22 56 694
1528 697 1525 2 -2 158 -344 347 -760z m-2668 -931 c-1 -5 -27 -54 -56 -110
-82 -158 -6 -143 -739 -143 l-620 0 -34 23 c-24 16 -50 53 -90 130 l-56 107
799 0 c440 0 798 -3 796 -7z m3063 -100 c-40 -77 -66 -114 -90 -130 l-34 -23
-620 0 c-733 0 -657 -15 -739 143 -29 56 -54 105 -56 110 -2 4 356 7 796 7
l799 0 -56 -107z m-1474 -1135 c25 -26 27 -34 28 -110 l0 -83 -589 -3 c-589
-2 -590 -2 -613 -24 -38 -35 -29 -89 18 -113 24 -13 137 -15 758 -15 l730 0
28 -24 c26 -23 28 -31 32 -110 l3 -86 -1222 0 -1222 0 3 86 c4 79 6 87 32 110
l28 24 260 0 c209 0 266 3 288 15 47 24 56 78 18 113 -20 19 -36 22 -142 24
l-120 3 0 82 c1 72 4 85 24 107 13 14 33 27 45 29 11 3 373 4 803 3 l783 -1
27 -27z"/>
</g>
</svg>
