<?xml version="1.0" standalone="no"?>
<!DOCTYPE svg PUBLIC "-//W3C//DTD SVG 20010904//EN"
 "http://www.w3.org/TR/2001/REC-SVG-20010904/DTD/svg10.dtd">
<svg version="1.0" xmlns="http://www.w3.org/2000/svg"
 width="512.000000pt" height="512.000000pt" viewBox="0 0 512.000000 512.000000"
 preserveAspectRatio="xMidYMid meet">
<metadata>
Created by potrace 1.16, written by Peter Selinger 2001-2019
</metadata>
<g transform="translate(0.000000,512.000000) scale(0.100000,-0.100000)"
fill="#FF7643"stroke="none">
<path d="M1735 4542 c-146 -50 -206 -115 -319 -340 -47 -94 -100 -187 -117
-207 -32 -36 -100 -76 -151 -89 l-28 -6 0 82 c0 97 -17 141 -69 175 -33 22
-41 23 -285 23 -231 0 -254 -2 -283 -20 -54 -32 -67 -63 -71 -167 -4 -91 -5
-93 -31 -99 -166 -33 -274 -112 -342 -249 l-34 -70 0 -1345 0 -1346 37 -75
c46 -94 122 -168 215 -212 65 -30 75 -32 213 -35 130 -4 148 -2 168 14 35 30
39 75 9 110 -25 29 -26 29 -159 34 -121 5 -137 8 -179 32 -61 36 -112 94 -135
154 -18 47 -19 97 -19 1314 0 1027 3 1274 13 1311 21 71 78 139 147 174 l59
30 410 5 c358 5 417 8 456 23 140 55 192 112 309 345 74 146 100 188 137 221
84 74 49 71 879 71 l742 0 62 -31 c78 -39 100 -69 203 -273 85 -170 142 -244
226 -293 98 -58 95 -57 538 -63 l410 -5 59 -30 c69 -35 126 -103 147 -174 10
-37 13 -285 13 -1316 l0 -1270 -24 -53 c-14 -31 -43 -70 -72 -96 -92 -83 90
-76 -2060 -76 -1384 0 -1925 -3 -1942 -11 -47 -21 -60 -80 -26 -123 l21 -26
1966 2 1967 3 68 32 c93 44 169 119 215 212 l37 75 0 1345 0 1346 -34 70 c-40
82 -116 162 -189 199 -104 53 -136 56 -532 56 -421 0 -437 2 -517 74 -38 35
-65 76 -132 207 -46 90 -100 185 -119 212 -45 63 -131 123 -210 147 -62 19
-94 20 -831 20 -700 -1 -770 -2 -816 -18z m-775 -582 l0 -60 -195 0 -195 0 0
60 0 60 195 0 195 0 0 -60z"/>
<path d="M2132 4157 c-27 -29 -28 -77 -3 -108 l19 -24 412 0 412 0 19 24 c26
32 25 82 -4 109 -23 22 -26 22 -428 22 l-406 0 -21 -23z"/>
<path d="M512 3547 c-46 -14 -121 -84 -143 -132 -23 -50 -25 -152 -3 -203 19
-47 68 -98 119 -125 56 -30 164 -30 220 0 91 48 137 125 137 229 -1 140 -110
246 -251 243 -25 -1 -61 -6 -79 -12z m121 -159 c34 -17 46 -39 47 -80 0 -28
-7 -42 -31 -62 -40 -34 -74 -33 -110 3 -41 41 -40 90 2 125 33 28 59 32 92 14z"/>
<path d="M2420 3554 c-565 -72 -1007 -480 -1117 -1031 -26 -132 -23 -376 6
-508 185 -824 1072 -1249 1827 -874 320 159 572 471 660 816 182 717 -260
1428 -981 1578 -78 16 -323 28 -395 19z m316 -169 c239 -41 448 -149 612 -316
100 -102 154 -177 212 -294 219 -442 126 -961 -235 -1303 -232 -221 -562 -336
-871 -302 -412 44 -762 302 -923 680 -176 413 -83 893 236 1214 258 260 621
380 969 321z"/>
<path d="M2445 3204 c-228 -36 -396 -122 -550 -279 -436 -445 -309 -1191 250
-1472 219 -111 502 -127 733 -42 286 104 501 341 579 638 32 119 36 325 10
432 -22 92 -56 178 -78 200 -25 25 -70 24 -104 -2 -23 -19 -26 -27 -22 -63 3
-23 17 -79 32 -126 23 -72 28 -103 28 -200 0 -138 -18 -222 -73 -337 -187
-386 -645 -545 -1028 -357 -197 97 -356 295 -408 510 -26 104 -23 269 5 368
43 155 139 304 256 399 83 67 145 101 255 138 89 31 104 33 230 33 126 0 141
-2 230 -33 112 -38 181 -76 262 -143 45 -38 68 -50 94 -51 76 -2 105 84 49
143 -83 87 -266 186 -407 220 -81 21 -279 34 -343 24z"/>
<path d="M4464 3476 c-49 -22 -59 -74 -23 -120 20 -25 24 -26 119 -26 95 0 99
1 119 26 28 35 26 67 -3 101 -22 25 -31 28 -103 31 -51 1 -89 -3 -109 -12z"/>
</g>
</svg>
