<?xml version="1.0" standalone="no"?>
<!DOCTYPE svg PUBLIC "-//W3C//DTD SVG 20010904//EN"
 "http://www.w3.org/TR/2001/REC-SVG-20010904/DTD/svg10.dtd">
<svg version="1.0" xmlns="http://www.w3.org/2000/svg"
 width="512.000000pt" height="512.000000pt" viewBox="0 0 512.000000 512.000000"
 preserveAspectRatio="xMidYMid meet">
<metadata>
Created by potrace 1.16, written by Peter Selinger 2001-2019
</metadata>
<g transform="translate(0.000000,512.000000) scale(0.100000,-0.100000)"
fill="#FF7643" stroke="none">
<path d="M996 4834 c-13 -12 -16 -39 -16 -124 l0 -109 -212 -3 c-205 -3 -215
-4 -268 -29 -70 -33 -136 -99 -169 -169 l-26 -55 0 -1910 0 -1910 30 -58 c37
-75 118 -149 191 -176 55 -21 57 -21 1497 -19 l1442 3 47 23 c71 36 131 93
169 164 l34 63 3 357 3 356 477 313 c262 172 496 327 519 346 27 22 54 57 75
100 29 59 33 77 32 143 -1 60 -6 86 -28 132 -33 70 -108 140 -173 162 -55 19
-159 21 -214 5 -21 -7 -184 -107 -361 -224 l-323 -211 -5 1170 -5 1171 -28 57
c-36 73 -119 150 -192 177 -50 19 -78 21 -285 21 l-230 0 0 109 c0 121 -8 141
-60 141 -52 0 -60 -20 -60 -141 l0 -109 -255 0 -255 0 0 109 c0 121 -8 141
-60 141 -52 0 -60 -20 -60 -141 l0 -109 -250 0 -250 0 0 109 c0 121 -8 141
-60 141 -52 0 -60 -20 -60 -141 l0 -109 -255 0 -255 0 0 109 c0 121 -8 141
-60 141 -16 0 -36 -7 -44 -16z m-16 -423 c0 -67 -1 -69 -31 -82 -146 -60 -185
-261 -73 -373 102 -102 284 -83 358 38 35 55 46 142 26 202 -17 49 -83 120
-126 134 l-34 12 0 69 0 69 255 0 255 0 0 -69 0 -69 -33 -11 c-42 -14 -101
-74 -122 -123 -49 -118 16 -267 134 -307 185 -61 361 112 297 292 -21 56 -63
106 -112 130 l-44 21 0 68 0 68 250 0 250 0 0 -68 0 -69 -40 -18 c-139 -63
-173 -259 -63 -369 100 -102 283 -83 357 38 35 55 46 142 26 202 -17 49 -83
120 -126 134 l-34 12 0 69 0 69 255 0 255 0 0 -69 0 -69 -34 -12 c-43 -14
-109 -85 -126 -134 -7 -21 -10 -64 -8 -96 9 -122 104 -210 227 -210 235 1 317
307 114 425 l-52 30 -1 68 0 69 213 -4 c136 -3 223 -9 242 -17 58 -24 103 -62
131 -114 l29 -52 3 -1187 3 -1186 -125 -82 c-130 -85 -145 -104 -126 -154 11
-30 51 -43 84 -28 13 6 216 137 452 292 236 155 434 284 439 286 6 2 23 -17
38 -42 23 -39 26 -49 15 -60 -7 -7 -343 -229 -747 -494 l-734 -482 -18 23 c-9
12 -24 35 -33 50 l-16 27 144 93 c83 53 150 104 156 117 21 46 -9 92 -59 92
-11 0 -100 -53 -198 -117 l-178 -118 -480 -5 -480 -5 -9 -27 c-6 -18 -6 -38 0
-55 l9 -28 443 -3 c243 -1 442 -4 442 -7 0 -2 -9 -19 -20 -37 l-20 -33 -422
-5 -423 -5 -9 -27 c-6 -18 -6 -38 0 -55 l9 -28 388 -3 c213 -1 387 -4 387 -7
0 -3 -17 -39 -37 -80 -36 -72 -37 -77 -23 -103 15 -26 19 -27 110 -30 52 -2
182 0 288 3 l193 7 281 184 280 184 -4 -287 c-4 -316 -6 -326 -67 -396 -18
-19 -53 -46 -79 -59 l-47 -23 -1390 0 c-1315 0 -1393 1 -1437 18 -55 21 -120
87 -139 143 -21 60 -21 3713 0 3764 34 81 97 134 181 151 19 4 108 7 198 8
l162 1 0 -69z m126 -225 c45 -45 46 -91 5 -135 -83 -88 -224 28 -150 123 44
55 97 60 145 12z m605 18 c36 -18 62 -73 53 -109 -9 -38 -59 -75 -101 -75 -96
0 -130 138 -45 184 35 20 56 20 93 0z m645 -18 c45 -45 47 -95 5 -137 -33 -33
-75 -38 -120 -14 -55 28 -64 110 -18 152 47 43 89 43 133 -1z m598 24 c37 -14
68 -68 61 -105 -7 -43 -57 -85 -101 -85 -75 0 -123 99 -76 156 33 42 69 52
116 34z m1635 -1904 c42 -22 89 -80 101 -125 12 -46 0 -112 -29 -149 l-17 -24
-97 147 c-53 81 -97 151 -97 156 0 15 108 10 139 -5z m-88 -322 c26 -39 29
-48 18 -59 -8 -7 -344 -230 -748 -495 l-734 -482 -18 23 c-9 12 -24 35 -33 49
l-15 27 747 491 c411 270 748 492 749 492 1 0 16 -21 34 -46z m-1677 -959 c63
-95 65 -100 44 -108 -12 -4 -72 -6 -134 -5 l-112 3 60 113 c33 63 64 110 68
105 4 -4 37 -53 74 -108z"/>
<path d="M541 4166 c-7 -9 -11 -41 -9 -82 3 -63 5 -70 31 -84 24 -13 30 -13
55 0 25 14 27 21 30 84 3 80 -6 96 -58 96 -21 0 -43 -6 -49 -14z"/>
<path d="M546 3912 c-15 -17 -16 -52 -14 -343 l3 -323 28 -16 c24 -13 30 -13
55 0 l27 16 3 323 c2 291 1 326 -14 343 -10 10 -29 18 -44 18 -15 0 -34 -8
-44 -18z"/>
<path d="M1012 3550 c-177 -26 -325 -188 -339 -372 -10 -131 33 -244 126 -331
207 -193 534 -133 654 121 30 63 32 74 32 177 0 104 -2 114 -32 175 -82 168
-254 257 -441 230z m184 -150 c52 -22 113 -83 139 -135 10 -22 21 -68 23 -102
18 -260 -295 -400 -477 -213 -45 46 -81 130 -81 189 0 64 27 135 71 185 87 98
209 127 325 76z"/>
<path d="M1115 3220 l-69 -70 -36 35 c-41 40 -80 45 -110 15 -35 -35 -26 -66
42 -136 89 -93 101 -91 234 32 91 84 104 100 104 128 0 40 -26 66 -66 66 -23
0 -44 -15 -99 -70z"/>
<path d="M1730 3301 c-14 -26 -13 -63 3 -84 11 -16 68 -17 802 -15 l789 3 16
28 c13 24 13 30 0 55 l-16 27 -791 3 c-775 2 -792 2 -803 -17z"/>
<path d="M1730 3101 c-14 -26 -13 -63 3 -84 11 -16 47 -17 452 -15 l439 3 16
28 c13 24 13 30 0 55 l-16 27 -441 3 c-429 2 -442 2 -453 -17z"/>
<path d="M1012 2550 c-177 -26 -325 -188 -339 -372 -10 -131 33 -244 126 -331
207 -193 534 -133 654 121 30 63 32 74 32 177 0 104 -2 114 -32 175 -82 168
-254 257 -441 230z m184 -150 c52 -22 113 -83 139 -135 10 -22 21 -68 23 -102
18 -260 -295 -400 -477 -213 -45 46 -81 130 -81 189 0 64 27 135 71 185 87 98
209 127 325 76z"/>
<path d="M1115 2220 l-69 -70 -36 35 c-41 40 -80 45 -110 15 -35 -35 -26 -66
42 -136 89 -93 101 -91 234 32 91 84 104 100 104 128 0 40 -26 66 -66 66 -23
0 -44 -15 -99 -70z"/>
<path d="M1730 2301 c-14 -26 -13 -63 3 -84 11 -16 68 -17 802 -15 l789 3 16
28 c13 24 13 30 0 55 l-16 27 -791 3 c-775 2 -792 2 -803 -17z"/>
<path d="M1730 2101 c-14 -26 -13 -63 3 -84 11 -16 47 -17 452 -15 l439 3 16
28 c13 24 13 30 0 55 l-16 27 -441 3 c-429 2 -442 2 -453 -17z"/>
<path d="M1012 1550 c-177 -26 -325 -188 -339 -372 -10 -131 33 -244 126 -331
207 -193 534 -133 654 121 30 63 32 74 32 177 0 104 -2 114 -32 175 -82 168
-254 257 -441 230z m184 -150 c52 -22 113 -83 139 -135 10 -22 21 -68 23 -102
18 -260 -295 -400 -477 -213 -45 46 -81 130 -81 189 0 64 27 135 71 185 87 98
209 127 325 76z"/>
<path d="M1115 1220 l-69 -70 -36 35 c-41 40 -80 45 -110 15 -35 -35 -26 -66
42 -136 89 -93 101 -91 234 32 91 84 104 100 104 128 0 40 -26 66 -66 66 -23
0 -44 -15 -99 -70z"/>
</g>
</svg>
