<?xml version="1.0" standalone="no"?>
<!DOCTYPE svg PUBLIC "-//W3C//DTD SVG 20010904//EN"
 "http://www.w3.org/TR/2001/REC-SVG-20010904/DTD/svg10.dtd">
<svg version="1.0" xmlns="http://www.w3.org/2000/svg"
 width="512.000000pt" height="512.000000pt" viewBox="0 0 512.000000 512.000000"
 preserveAspectRatio="xMidYMid meet">

<g transform="translate(0.000000,512.000000) scale(0.100000,-0.100000)"
fill="#FF7643" stroke="none">
<path d="M1289 4340 c-190 -48 -370 -208 -449 -400 -51 -124 -65 -208 -64
-385 1 -278 62 -508 224 -840 172 -352 412 -680 734 -1000 489 -486 1049 -815
1556 -916 152 -31 387 -33 503 -6 253 60 430 203 524 427 23 55 27 80 28 161
0 90 -2 99 -38 172 -49 98 -73 120 -415 357 -319 221 -345 233 -482 228 -164
-6 -254 -65 -378 -250 -29 -43 -56 -78 -60 -78 -4 0 -64 42 -132 94 -328 246
-690 608 -936 936 -52 68 -94 127 -94 131 0 3 42 36 94 72 121 85 162 127 199
205 51 109 53 239 4 344 -29 63 -393 586 -445 641 -21 21 -69 54 -108 73 -59
30 -85 36 -150 39 -44 3 -95 0 -115 -5z"/>
</g>
</svg>
