<?xml version="1.0" standalone="no"?>
<!DOCTYPE svg PUBLIC "-//W3C//DTD SVG 20010904//EN"
 "http://www.w3.org/TR/2001/REC-SVG-20010904/DTD/svg10.dtd">
<svg version="1.0" xmlns="http://www.w3.org/2000/svg"
 width="512.000000pt" height="512.000000pt" viewBox="0 0 512.000000 512.000000"
 preserveAspectRatio="xMidYMid meet">
<metadata>
Created by potrace 1.16, written by Peter Selinger 2001-2019
</metadata>
<g transform="translate(0.000000,512.000000) scale(0.100000,-0.100000)"
fill="#FF7643" stroke="none">
<path d="M1040 4941 c-417 -89 -729 -393 -853 -831 -21 -74 -22 -91 -25 -995
-4 -990 -3 -998 49 -1157 131 -403 507 -712 919 -755 l60 -6 0 -498 c0 -486 1
-500 20 -519 14 -14 33 -20 62 -20 l43 0 515 515 515 514 840 3 840 3 96 27
c137 37 234 80 341 151 223 146 387 372 465 638 l27 94 4 925 c4 984 3 1001
-45 1155 -51 164 -135 305 -257 433 -166 173 -349 276 -575 322 -97 20 -130
20 -1528 19 -1337 0 -1433 -2 -1513 -18z m2887 -151 c395 -35 709 -291 830
-677 l28 -88 0 -940 c0 -896 -1 -943 -19 -1010 -94 -340 -344 -593 -681 -687
-79 -22 -88 -23 -952 -28 l-873 -5 -450 -450 -449 -449 -3 428 -3 428 -26 22
c-22 19 -43 24 -120 29 -467 29 -845 402 -877 865 -4 53 -5 477 -2 942 l5 845
28 88 c121 389 437 652 826 687 131 11 2606 12 2738 0z"/>
<path d="M1655 3296 c-90 -42 -135 -114 -135 -219 0 -84 35 -156 95 -197 169
-117 385 -6 385 197 0 35 -6 78 -13 96 -53 125 -207 182 -332 123z m153 -166
c32 -30 30 -82 -4 -109 -15 -12 -34 -21 -44 -21 -10 0 -29 9 -44 21 -52 41
-22 129 44 129 14 0 36 -9 48 -20z"/>
<path d="M2455 3296 c-90 -42 -135 -114 -135 -219 0 -84 35 -156 95 -197 169
-117 385 -6 385 197 0 35 -6 78 -13 96 -53 125 -207 182 -332 123z m153 -166
c32 -30 30 -82 -4 -109 -15 -12 -34 -21 -44 -21 -10 0 -29 9 -44 21 -52 41
-22 129 44 129 14 0 36 -9 48 -20z"/>
<path d="M3255 3296 c-90 -42 -135 -114 -135 -219 0 -84 35 -156 95 -197 169
-117 385 -6 385 197 0 35 -6 78 -13 96 -53 125 -207 182 -332 123z m153 -166
c32 -30 30 -82 -4 -109 -15 -12 -34 -21 -44 -21 -10 0 -29 9 -44 21 -52 41
-22 129 44 129 14 0 36 -9 48 -20z"/>
</g>
</svg>
