<?xml version="1.0" standalone="no"?>
<!DOCTYPE svg PUBLIC "-//W3C//DTD SVG 20010904//EN"
 "http://www.w3.org/TR/2001/REC-SVG-20010904/DTD/svg10.dtd">
<svg version="1.0" xmlns="http://www.w3.org/2000/svg"
 width="512.000000pt" height="512.000000pt" viewBox="0 0 512.000000 512.000000"
 preserveAspectRatio="xMidYMid meet">

<g transform="translate(0.000000,512.000000) scale(0.100000,-0.100000)"
fill="#FF7643" stroke="none">
<path d="M2280 4654 c-19 -2 -78 -9 -130 -15 -632 -71 -1249 -334 -1751 -745
-145 -118 -357 -330 -380 -379 -54 -116 26 -261 150 -273 98 -9 110 -2 264
145 268 256 486 413 777 559 287 144 584 237 930 291 92 14 176 18 420 18 244
0 328 -4 420 -18 346 -54 643 -147 930 -291 290 -146 511 -305 773 -555 75
-72 148 -136 162 -141 35 -13 117 -13 152 1 66 25 123 110 123 184 0 68 -31
114 -166 247 -536 529 -1170 840 -1944 954 -100 15 -641 28 -730 18z"/>
<path d="M2330 3494 c-396 -48 -755 -171 -1062 -365 -215 -136 -484 -366 -519
-444 -35 -76 -16 -168 47 -227 38 -35 74 -48 134 -48 71 0 94 12 194 104 183
166 333 272 523 369 287 146 585 217 913 217 538 0 999 -189 1438 -588 74 -68
103 -88 142 -98 161 -42 300 122 231 271 -32 70 -265 276 -456 402 -298 198
-607 321 -960 384 -95 17 -168 22 -355 24 -129 2 -251 1 -270 -1z"/>
<path d="M2327 2314 c-250 -46 -540 -193 -720 -366 -93 -90 -112 -140 -87
-230 23 -81 102 -138 190 -138 68 0 102 17 189 93 121 106 256 180 421 229 95
29 292 36 398 14 166 -34 333 -116 473 -233 103 -85 135 -103 196 -103 28 0
64 5 80 11 65 24 122 109 123 182 0 82 -43 141 -185 251 -190 148 -419 251
-642 290 -109 20 -328 19 -436 0z"/>
<path d="M2445 1098 c-45 -17 -105 -56 -138 -92 -84 -90 -109 -244 -56 -356
31 -66 90 -127 155 -160 42 -21 63 -25 144 -25 81 0 102 4 144 25 65 33 124
94 155 160 37 78 37 192 0 270 -31 67 -90 127 -155 160 -39 20 -66 25 -134 27
-47 1 -98 -3 -115 -9z"/>
</g>
</svg>
