<?xml version="1.0" standalone="no"?>
<!DOCTYPE svg PUBLIC "-//W3C//DTD SVG 20010904//EN"
 "http://www.w3.org/TR/2001/REC-SVG-20010904/DTD/svg10.dtd">
<svg version="1.0" xmlns="http://www.w3.org/2000/svg"
 width="512.000000pt" height="512.000000pt" viewBox="0 0 512.000000 512.000000"
 preserveAspectRatio="xMidYMid meet">
<metadata>
Created by potrace 1.16, written by Peter Selinger 2001-2019
</metadata>
<g transform="translate(0.000000,512.000000) scale(0.100000,-0.100000)"
fill="#FF7643" stroke="none">
<path d="M2245 4944 c-1048 -142 -1868 -932 -2056 -1979 -21 -116 -24 -160
-24 -405 0 -245 3 -289 24 -405 182 -1014 952 -1784 1966 -1966 116 -21 160
-24 405 -24 245 0 289 3 405 24 1014 182 1784 952 1966 1966 21 116 24 160 24
405 0 245 -3 289 -24 405 -188 1050 -1015 1842 -2064 1980 -146 19 -481 19
-622 -1z m425 -335 c248 -112 482 -555 594 -1124 9 -44 18 -90 21 -102 l5 -23
-730 0 -729 0 5 33 c20 115 83 362 120 475 130 393 305 655 494 741 31 14 66
21 110 21 44 0 79 -7 110 -21z m-805 -131 c-63 -102 -169 -338 -220 -490 -57
-169 -114 -398 -136 -545 l-12 -83 -424 0 c-233 0 -423 3 -423 6 0 19 118 238
173 322 163 249 397 478 645 631 119 74 377 199 415 201 5 0 -4 -19 -18 -42z
m1450 12 c277 -110 520 -274 735 -496 116 -120 169 -185 254 -317 51 -77 166
-293 166 -311 0 -3 -190 -6 -422 -6 l-423 0 -23 130 c-31 173 -80 365 -137
530 -44 129 -153 367 -210 458 -14 23 -24 42 -21 42 3 0 39 -13 81 -30z
m-1868 -1557 c-10 -124 -3 -809 8 -835 7 -17 -19 -18 -453 -18 l-459 0 -16 83
c-51 265 -51 529 0 795 l16 82 456 0 457 0 -9 -107z m1890 60 c10 -62 10 -804
0 -865 l-8 -48 -769 0 -769 0 -8 48 c-10 61 -10 803 0 865 l8 47 769 0 769 0
8 -47z m1256 -35 c29 -149 37 -237 37 -398 0 -161 -8 -249 -37 -397 l-16 -83
-458 0 -458 0 7 33 c4 17 7 219 7 447 0 228 -3 430 -7 448 l-7 32 458 0 458 0
16 -82z m-3084 -1280 c22 -148 79 -377 136 -546 51 -152 157 -388 220 -489 14
-24 24 -43 21 -43 -14 0 -166 65 -248 106 -330 166 -620 425 -821 735 -49 75
-167 296 -167 313 0 3 190 6 423 6 l424 0 12 -82z m1776 60 c-3 -13 -12 -59
-21 -103 -112 -569 -346 -1012 -594 -1124 -61 -28 -159 -28 -220 0 -248 112
-482 555 -594 1124 -9 44 -18 90 -21 103 l-5 22 730 0 730 0 -5 -22z m1185 16
c0 -16 -120 -241 -167 -314 -162 -248 -403 -485 -651 -639 -118 -74 -383 -201
-418 -201 -3 0 7 19 21 43 57 90 166 328 210 457 57 165 106 357 137 530 l23
130 423 0 c232 0 422 -3 422 -6z"/>
</g>
</svg>
