<?xml version="1.0" standalone="no"?>
<!DOCTYPE svg PUBLIC "-//W3C//DTD SVG 20010904//EN"
 "http://www.w3.org/TR/2001/REC-SVG-20010904/DTD/svg10.dtd">
<svg version="1.0" xmlns="http://www.w3.org/2000/svg"
 width="512.000000pt" height="512.000000pt" viewBox="0 0 512.000000 512.000000"
 preserveAspectRatio="xMidYMid meet">

<g transform="translate(0.000000,512.000000) scale(0.100000,-0.100000)"
fill="#FF7643" stroke="none">
<path d="M3800 4955 l0 -85 147 0 148 0 -850 -850 -850 -850 -412 412 -413
413 -525 -525 -525 -525 57 -57 58 -58 467 467 468 468 412 -413 413 -412 907
907 908 908 0 -148 0 -147 85 0 85 0 0 290 0 290 -290 0 -290 0 0 -85z"/>
<path d="M4130 2065 l0 -1815 -85 0 -85 0 0 1570 0 1570 -410 0 -410 0 0
-1570 0 -1570 -85 0 -85 0 0 990 0 990 -410 0 -410 0 0 -990 0 -990 -85 0 -85
0 0 1240 0 1240 -410 0 -410 0 0 -1240 0 -1240 -85 0 -85 0 0 575 0 575 -410
0 -410 0 0 -575 0 -575 -85 0 -85 0 0 -85 0 -85 2560 0 2560 0 0 85 0 85 -85
0 -85 0 0 1815 0 1815 -410 0 -410 0 0 -1815z m660 -80 l0 -1735 -250 0 -250
0 0 1728 c0 951 3 1732 7 1735 3 4 116 7 250 7 l243 0 0 -1735z m-990 -250 l0
-1485 -250 0 -250 0 0 1485 0 1485 250 0 250 0 0 -1485z m-1980 -330 l0 -1155
-250 0 -250 0 0 1155 0 1155 250 0 250 0 0 -1155z m990 -250 l0 -905 -250 0
-250 0 0 905 0 905 250 0 250 0 0 -905z m-1980 -410 l0 -495 -250 0 -250 0 0
495 0 495 250 0 250 0 0 -495z"/>
</g>
</svg>
