<?xml version="1.0" standalone="no"?>
<!DOCTYPE svg PUBLIC "-//W3C//DTD SVG 20010904//EN"
 "http://www.w3.org/TR/2001/REC-SVG-20010904/DTD/svg10.dtd">
<svg version="1.0" xmlns="http://www.w3.org/2000/svg"
 width="512.000000pt" height="512.000000pt" viewBox="0 0 512.000000 512.000000"
 preserveAspectRatio="xMidYMid meet">

<g transform="translate(0.000000,512.000000) scale(0.100000,-0.100000)"
fill="#FF7643" stroke="none">
<path d="M180 4151 c-74 -23 -127 -69 -159 -141 -20 -44 -21 -60 -21 -1164 0
-821 3 -1129 12 -1157 16 -55 73 -118 132 -145 l51 -24 491 0 492 0 -20 -79
-20 -79 -86 -4 c-97 -5 -132 -19 -186 -74 -45 -46 -66 -110 -66 -200 0 -56 4
-77 19 -95 l19 -24 824 -3 c583 -2 831 1 850 9 38 16 51 57 46 142 -11 159
-106 247 -268 247 l-68 0 -20 80 -20 79 502 3 c492 3 502 3 541 25 47 25 85
64 111 113 18 34 19 82 19 1180 0 1098 -1 1146 -19 1180 -26 49 -64 88 -111
113 l-40 22 -1490 2 c-820 1 -1501 -2 -1515 -6z m2973 -162 c14 -6 30 -22 36
-36 8 -17 11 -303 11 -988 l0 -965 -1520 0 -1520 0 0 973 c0 1028 -2 990 45
1015 29 16 2914 17 2948 1z m-1511 -2156 c-21 -8 -44 -63 -38 -89 4 -13 16
-33 28 -44 l22 -20 -723 0 -722 0 -24 25 c-21 20 -25 34 -25 80 l0 55 748 -1
c411 0 741 -3 734 -6z m1558 -38 c0 -55 -15 -90 -47 -104 -17 -8 -235 -11
-733 -11 l-709 0 24 25 c16 15 25 36 25 55 0 19 -9 40 -25 55 l-24 25 744 0
745 0 0 -45z m-1162 -355 l20 -80 -378 0 -378 0 20 80 20 80 338 0 338 0 20
-80z m330 -257 c11 -10 23 -28 27 -40 l6 -23 -720 0 c-644 0 -721 2 -721 15 0
9 11 27 25 40 l24 25 669 0 c624 0 671 -1 690 -17z"/>
<path d="M3700 4151 c-77 -24 -148 -90 -168 -160 -17 -55 -17 -2807 0 -2862
15 -51 69 -114 122 -142 41 -22 44 -22 636 -25 409 -2 611 0 646 8 66 14 129
67 160 134 l24 51 0 1405 0 1405 -24 51 c-29 62 -93 118 -151 133 -51 13
-1204 14 -1245 2z m1213 -163 c36 -19 46 -40 47 -95 l0 -53 -640 0 -640 0 0
51 c0 58 12 87 43 99 35 14 1164 12 1190 -2z m47 -348 l0 -40 -640 0 -640 0 0
40 0 40 640 0 640 0 0 -40z m0 -1333 c0 -1125 0 -1133 -20 -1155 -11 -12 -31
-24 -43 -27 -12 -3 -282 -4 -600 -3 l-579 3 -19 24 c-18 23 -19 56 -19 1157
l0 1134 640 0 640 0 0 -1133z"/>
<path d="M4240 2947 c-49 -16 -133 -102 -148 -153 -28 -96 -4 -182 68 -247
105 -94 242 -89 333 13 93 103 90 228 -8 325 -70 71 -152 91 -245 62z m135
-172 c16 -15 25 -36 25 -55 0 -19 -9 -40 -25 -55 -15 -16 -36 -25 -55 -25 -19
0 -40 9 -55 25 -16 15 -25 36 -25 55 0 19 9 40 25 55 15 16 36 25 55 25 19 0
40 -9 55 -25z"/>
<path d="M3945 1975 c-16 -15 -25 -36 -25 -55 0 -19 9 -40 25 -55 l24 -25 351
0 351 0 24 25 c16 15 25 36 25 55 0 19 -9 40 -25 55 l-24 25 -351 0 -351 0
-24 -25z"/>
<path d="M3945 1735 c-16 -15 -25 -36 -25 -55 0 -19 9 -40 25 -55 l24 -25 351
0 351 0 24 25 c16 15 25 36 25 55 0 19 -9 40 -25 55 l-24 25 -351 0 -351 0
-24 -25z"/>
<path d="M3945 1495 c-16 -15 -25 -36 -25 -55 0 -19 9 -40 25 -55 l24 -25 351
0 351 0 24 25 c16 15 25 36 25 55 0 19 -9 40 -25 55 l-24 25 -351 0 -351 0
-24 -25z"/>
</g>
</svg>
