<?xml version="1.0" standalone="no"?>
<!DOCTYPE svg PUBLIC "-//W3C//DTD SVG 20010904//EN"
 "http://www.w3.org/TR/2001/REC-SVG-20010904/DTD/svg10.dtd">

<svg version="1.0" xmlns="http://www.w3.org/2000/svg"
 width="512.000000pt" height="512.000000pt" viewBox="0 0 512.000000 512.000000"
 preserveAspectRatio="xMidYMid meet">

<g transform="translate(0.000000,512.000000) scale(0.100000,-0.100000)"
fill="#FF7643" stroke="none">
<path d="M4445 5036 c-16 -8 -105 -90 -197 -183 l-168 -169 0 -77 0 -76 -122
83 c-431 290 -877 426 -1398 426 -398 0 -739 -77 -1085 -245 -723 -351 -1224
-1017 -1365 -1816 -28 -156 -38 -511 -21 -681 109 -1033 850 -1890 1860 -2148
177 -45 310 -62 539 -67 144 -4 262 -1 335 7 588 64 1125 326 1527 747 354
369 573 807 662 1318 29 173 36 523 13 706 -50 406 -182 757 -411 1097 l-83
122 76 0 77 0 169 168 c93 92 176 182 183 199 12 27 12 38 1 64 -10 26 -36 43
-171 113 l-159 81 -83 159 c-45 88 -88 162 -96 166 -30 17 -55 18 -83 6z
m-1630 -177 c382 -39 796 -201 1112 -435 l76 -56 -164 -164 c-90 -90 -166
-164 -170 -164 -3 0 -46 27 -95 59 -235 156 -515 258 -796 291 -148 18 -440 8
-572 -19 -787 -161 -1367 -778 -1477 -1571 -17 -123 -14 -385 5 -509 126 -815
745 -1435 1556 -1557 125 -19 389 -21 510 -5 486 67 923 318 1219 701 172 222
286 471 347 757 32 150 43 427 24 591 -33 281 -136 563 -291 796 -32 49 -59
92 -59 95 0 4 74 80 163 169 l164 164 30 -39 c175 -222 326 -536 403 -837 57
-223 74 -386 67 -636 -7 -222 -22 -332 -77 -536 -142 -534 -489 -1011 -965
-1329 -278 -186 -658 -323 -1005 -365 -136 -16 -414 -14 -555 5 -670 87 -1259
455 -1637 1022 -276 414 -417 943 -379 1424 46 586 274 1084 680 1489 498 496
1172 732 1886 659z m1705 -169 l55 -112 119 -60 119 -60 -109 -109 -109 -109
-120 0 -120 0 -720 -720 c-789 -788 -745 -751 -806 -691 -60 61 -97 17 691
806 l720 720 0 120 0 120 107 107 c59 59 109 105 112 103 3 -2 31 -54 61 -115z
m-1635 -490 c204 -43 409 -126 572 -232 46 -29 83 -55 83 -58 0 -3 -74 -79
-164 -169 l-164 -164 -99 51 c-177 90 -351 132 -553 132 -435 0 -815 -217
-1043 -596 -55 -91 -113 -246 -137 -363 -24 -118 -29 -320 -11 -432 81 -502
467 -898 968 -995 117 -23 329 -23 446 0 245 47 448 156 628 335 155 154 258
334 316 548 25 91 27 113 27 303 0 192 -2 211 -27 305 -16 56 -54 155 -88 224
l-61 124 164 164 c89 89 165 163 168 163 11 0 114 -170 156 -258 57 -118 116
-298 140 -427 29 -151 26 -482 -4 -622 -71 -329 -214 -600 -441 -836 -592
-617 -1541 -686 -2226 -162 -93 71 -241 222 -313 318 -350 467 -433 1072 -221
1612 86 220 206 402 379 575 223 223 470 363 777 441 162 41 236 48 443 44
139 -3 210 -9 285 -25z m-119 -629 c90 -19 242 -74 291 -107 l26 -16 -176
-176 -175 -175 -45 12 c-25 6 -83 11 -127 11 -150 0 -273 -48 -381 -147 -120
-112 -180 -246 -181 -407 0 -111 12 -169 59 -265 63 -133 197 -242 348 -287
80 -23 230 -23 310 0 246 73 405 285 405 539 0 51 -5 112 -11 136 l-10 45 172
172 c95 95 177 170 182 167 17 -10 75 -146 103 -239 36 -120 45 -339 19 -465
-92 -457 -450 -785 -914 -839 -342 -40 -708 120 -922 403 -233 307 -277 719
-114 1065 107 228 327 433 560 523 178 69 397 88 581 50z m-137 -684 c0 -34 4
-74 10 -88 9 -24 3 -32 -75 -110 l-84 -84 0 78 c0 93 -16 117 -80 117 -27 0
-47 -7 -60 -20 -19 -19 -20 -33 -20 -220 0 -187 1 -201 20 -220 19 -19 33 -20
220 -20 187 0 201 1 220 20 13 13 20 33 20 60 0 64 -24 80 -117 80 l-78 0 84
84 c75 76 86 83 108 75 13 -5 54 -9 90 -9 l65 0 -4 -87 c-3 -69 -9 -100 -30
-145 -140 -300 -565 -306 -711 -9 -30 61 -32 72 -32 171 0 93 3 112 26 161 67
143 198 228 351 229 l77 0 0 -63z"/>
</g>
</svg>
