<?xml version="1.0" standalone="no"?>
<!DOCTYPE svg PUBLIC "-//W3C//DTD SVG 20010904//EN"
 "http://www.w3.org/TR/2001/REC-SVG-20010904/DTD/svg10.dtd">
<svg version="1.0" xmlns="http://www.w3.org/2000/svg"
 width="512.000000pt" height="512.000000pt" viewBox="0 0 512.000000 512.000000"
 preserveAspectRatio="xMidYMid meet">

<g transform="translate(0.000000,512.000000) scale(0.100000,-0.100000)"
fill="#FF7643" stroke="none">
<path d="M2375 4873 c-529 -46 -1024 -267 -1406 -627 l-68 -65 14 -243 c8
-134 15 -254 15 -267 0 -26 1 -26 120 10 61 18 71 25 130 95 134 157 349 323
545 422 252 127 482 187 760 199 316 13 620 -54 905 -198 354 -181 628 -455
809 -809 267 -526 267 -1134 0 -1660 -180 -353 -456 -629 -809 -809 -676 -344
-1482 -239 -2053 266 -236 209 -422 494 -526 805 -48 143 -80 189 -155 224
-124 58 -269 2 -321 -123 -34 -81 -6 -213 96 -451 273 -637 836 -1129 1504
-1316 806 -225 1678 4 2266 596 353 355 576 801 656 1309 24 158 24 500 0 658
-79 507 -303 954 -655 1308 -436 439 -1047 689 -1661 681 -69 -1 -144 -3 -166
-5z"/>
<path d="M370 4772 c-63 -32 -116 -102 -125 -165 -9 -58 72 -1501 87 -1557 24
-90 133 -170 230 -170 32 0 1389 394 1462 424 18 7 49 30 69 51 137 141 51
382 -144 402 -50 5 -107 -10 -607 -157 -304 -89 -555 -161 -556 -159 -2 2 -18
265 -36 583 -21 387 -37 592 -46 618 -48 137 -205 198 -334 130z"/>
</g>
</svg>
