<?xml version="1.0" standalone="no"?>
<!DOCTYPE svg PUBLIC "-//W3C//DTD SVG 20010904//EN"
 "http://www.w3.org/TR/2001/REC-SVG-20010904/DTD/svg10.dtd">
 
<svg version="1.0" xmlns="http://www.w3.org/2000/svg"
 width="520.000000pt" height="520.000000pt" viewBox="0 0 520.000000 520.000000"
 preserveAspectRatio="xMidYMid meet">

<g transform="translate(0.000000,512.000000) scale(0.100000,-0.100000)"
fill="#FF7643" stroke="none">
<path d="M2365 4629 c-416 -42 -794 -197 -1116 -457 -109 -87 -293 -283 -371
-393 -91 -128 -162 -249 -152 -258 12 -11 266 -111 280 -111 7 0 28 28 48 62
69 114 174 244 289 354 529 509 1306 635 1972 319 364 -172 659 -466 831 -830
52 -111 105 -259 124 -350 6 -27 13 -58 16 -67 5 -17 -12 -18 -269 -18 l-275
0 -31 -35 c-35 -41 -38 -59 -13 -96 29 -44 615 -640 644 -655 37 -19 98 -18
129 4 14 9 165 159 337 333 342 347 337 339 289 410 l-23 34 -231 3 -231 2
-17 93 c-10 50 -38 153 -62 227 -243 753 -888 1298 -1672 1415 -125 19 -382
26 -496 14z"/>
<path d="M655 2861 c-36 -21 -627 -626 -643 -658 -18 -33 -15 -49 19 -88 l31
-35 238 0 239 0 16 -57 c60 -216 165 -446 280 -618 298 -441 749 -752 1259
-870 197 -45 447 -63 636 -45 649 59 1196 384 1568 931 l32 47 -152 61 c-83
33 -152 60 -153 58 0 -1 -27 -38 -59 -82 -79 -108 -270 -295 -386 -378 -107
-76 -335 -192 -455 -232 -225 -76 -465 -106 -693 -87 -254 21 -434 71 -657
182 -184 92 -303 178 -455 330 -150 150 -237 269 -329 452 -58 114 -121 272
-121 301 0 4 117 7 259 7 l260 0 23 32 c14 20 23 47 23 71 0 36 -12 50 -331
367 l-330 330 -44 0 c-26 0 -58 -8 -75 -19z"/>
</g>
</svg>
